<svg xmlns="http://www.w3.org/2000/svg" viewBox="0 0 240 240" role="img" aria-labelledby="title desc">
  <title id="title">Jimothy Workout Timer logo</title>
  <desc id="desc">A playful round raccoon mascot holding a stopwatch and wearing a sweatband.</desc>
  <defs>
    <linearGradient id="badge" x1="38" y1="24" x2="206" y2="218" gradientUnits="userSpaceOnUse">
      <stop stop-color="#42d392"/>
      <stop offset=".52" stop-color="#5fb3ff"/>
      <stop offset="1" stop-color="#ffc857"/>
    </linearGradient>
    <linearGradient id="fur" x1="72" y1="54" x2="169" y2="178" gradientUnits="userSpaceOnUse">
      <stop stop-color="#f4f7f8"/>
      <stop offset=".34" stop-color="#aeb9bd"/>
      <stop offset="1" stop-color="#6f797e"/>
    </linearGradient>
    <filter id="softShadow" x="-20%" y="-20%" width="140%" height="150%">
      <feDropShadow dx="0" dy="10" stdDeviation="9" flood-color="#000000" flood-opacity=".28"/>
    </filter>
  </defs>

  <circle cx="120" cy="120" r="106" fill="#111417"/>
  <circle cx="120" cy="120" r="99" fill="none" stroke="url(#badge)" stroke-width="12"/>
  <path d="M42 153c26 40 65 58 115 50 24-4 41-15 52-30-17 38-52 63-92 63-44 0-81-28-95-67 5-8 11-13 20-16Z" fill="#1a2025"/>

  <g filter="url(#softShadow)">
    <path d="M72 66 54 37c-3-5 1-11 7-10l34 8c8-5 16-9 25-9s18 4 25 9l34-8c6-1 10 5 7 10l-18 29c14 14 22 35 22 60 0 48-30 79-70 79s-70-31-70-79c0-25 8-46 22-60Z" fill="url(#fur)"/>
    <path d="m71 58-9-17 20 5c-4 3-8 7-11 12Zm98 0 9-17-20 5c4 3 8 7 11 12Z" fill="#dce3e5"/>
    <path d="M70 113c8-26 28-42 50-42s42 16 50 42c-9 12-25 20-50 20s-41-8-50-20Z" fill="#1c2227"/>
    <path d="M83 96c8-11 20-18 37-18s29 7 37 18c-5-2-12-3-20-3-7 0-13 2-17 5-4-3-10-5-17-5-8 0-15 1-20 3Z" fill="#f3f5f4"/>
    <path d="M91 119c8 17 18 25 29 25s21-8 29-25c-9 6-18 9-29 9s-20-3-29-9Z" fill="#eef2f1"/>
    <ellipse cx="96" cy="111" rx="13" ry="15" fill="#08090a"/>
    <ellipse cx="144" cy="111" rx="13" ry="15" fill="#08090a"/>
    <circle cx="100" cy="106" r="4" fill="#ffffff"/>
    <circle cx="148" cy="106" r="4" fill="#ffffff"/>
    <path d="M109 131c0-7 22-7 22 0 0 5-5 9-11 9s-11-4-11-9Z" fill="#090b0c"/>
    <path d="M105 151c9 8 21 8 30 0" fill="none" stroke="#263038" stroke-width="5" stroke-linecap="round"/>
    <path d="M73 82c16-12 30-18 47-18s31 6 47 18l-7-20c-13-9-26-13-40-13S93 53 80 62l-7 20Z" fill="#42d392"/>
    <path d="M77 76c27 11 58 11 86 0" fill="none" stroke="#111417" stroke-width="5" stroke-linecap="round" opacity=".42"/>
  </g>

  <g transform="translate(146 147) rotate(-10)">
    <circle cx="32" cy="32" r="27" fill="#f4f7f8" stroke="#111417" stroke-width="7"/>
    <path d="M25 2h14v9H25z" fill="#f4f7f8" stroke="#111417" stroke-width="6" stroke-linejoin="round"/>
    <path d="M32 32V15m0 17 12 8" fill="none" stroke="#111417" stroke-width="6" stroke-linecap="round"/>
    <path d="M13 32h8m22 0h8M32 13v8m0 22v8" fill="none" stroke="#5fb3ff" stroke-width="4" stroke-linecap="round"/>
  </g>

  <path d="M54 180c18 17 41 26 66 26 24 0 46-8 64-23" fill="none" stroke="#ffc857" stroke-width="10" stroke-linecap="round"/>
  <path d="M58 181c15 12 35 19 59 20" fill="none" stroke="#42d392" stroke-width="5" stroke-linecap="round"/>
</svg>
